<?xml version="1.0" encoding="utf-8"?>
<!-- Generator: Adobe Illustrator 23.0.3, SVG Export Plug-In . SVG Version: 6.00 Build 0)  -->
<svg version="1.1" id="Layer_1" xmlns="http://www.w3.org/2000/svg" xmlns:xlink="http://www.w3.org/1999/xlink" x="0px" y="0px"
	 viewBox="0 0 58.24 66.58" style="enable-background:new 0 0 58.24 66.58;" xml:space="preserve">
<g>
	<g>
		<path d="M38.43,37l-0.66,1.14c0,0,0.01,0.01,0.01,0.01l0.01-0.02l14.38,24.91H5.62l14.39-24.9l-0.65-1.12L3.68,64.16h50.42
			L38.43,37z"/>
	</g>
	<g>
		<path d="M2.9,3.45l16.16,28.01l0.67,1.15l0.66,1.14l8.5,14.72l8.5-14.73l1.34-2.31L54.89,3.45H2.9z M37.4,31.45l-0.67,1.14
			l-7.84,13.58l-7.83-13.56l-0.66-1.15l-0.67-1.15L4.89,4.61h48L37.4,31.45z"/>
	</g>
</g>
</svg>
